#!OML:ASF E:\emotionWalksFemale\Project 1\Capture day 1\Session 1\Female1.ASF
:FULLY-SPECIFIED
:DEGREES
636
root 9.11185 15.4961 19.0362 359.73 1.0512 -360.393
lowerback 10.3031 0.154256 0.130265
upperback -3.02382 0.304876 0.929045
thorax -9.02359 0.170405 0.861463
lowerneck -9.888 -3.24939 -7.03111
upperneck 7.97882 -4.00248 6.18345
head 4.26639 -1.8495 2.77819
rclavicle -6.00702e-015 -1.98785e-016
rhumerus -45.3849 1.86276 -86.7466
rradius 35.9
rwrist 29.0287
rhand -6.12419 -52.2212
rfingers 7.12502
rthumb 19.713 638.758
lclavicle -6.00702e-015 -1.98785e-016
lhumerus -43.7403 -5.98613 93.5702
lradius 37.0338
lwrist -9.64928
lhand 4.54259 -31.5969
lfingers 7.12502
lthumb 29.9336 -3.99765
rfemur -0.771187 20.1216 26.8637
rtibia 19.1922
rfoot -14.7579 -28.6456
rtoes -5.97173
lfemur -3.77902 -22.3368 -27.214
ltibia 22.6452
lfoot -23.5516 23.9819
ltoes -17.8945
637
root 9.11392 15.4952 19.0418 359.715 1.08802 -360.389
lowerback 10.028 0.232514 0.111801
upperback -2.88727 0.402006 0.906155
thorax -8.71593 0.217036 0.829875
lowerneck -9.71568 -3.32613 -7.15657
upperneck 7.78036 -4.11099 6.37066
head 4.19131 -1.89949 2.85115
rclavicle -2.47238e-015 9.93923e-015
rhumerus -45.0556 2.51869 -86.8779
rradius 36.2059
rwrist 28.4878
rhand -6.62964 -52.3544
rfingers 7.12502
rthumb 19.227 638.576
lclavicle -2.47238e-015 9.93923e-015
lhumerus -43.4657 -6.32732 93.447
lradius 37.012
lwrist -10.4671
lhand 4.59427 -31.5764
lfingers 7.12502
lthumb 29.9829 -3.98605
rfemur -0.614297 20.054 26.8568
rtibia 19.0202
rfoot -15.0237 -28.5369
rtoes -5.05191
lfemur -3.77887 -22.2812 -27.2525
ltibia 22.7542
lfoot -23.5846 24.0761
ltoes -19.2644
638
root 9.10952 15.5 19.0362 359.844 1.20073 -360.861
lowerback 10.0347 0.252134 0.445709
upperback -2.98979 0.48754 1.06131
thorax -8.83129 0.245511 0.79202
lowerneck -9.59657 -3.42689 -7.22318
upperneck 7.98903 -4.24158 6.25201
head 4.24314 -1.97433 2.81685
rclavicle -5.18704e-015 6.55989e-015
rhumerus -44.9739 3.01273 -86.8837
rradius 36.5735
rwrist 28.0164
rhand -6.85737 -52.8294
rfingers 7.12502
rthumb 19.008 638.079
lclavicle -5.18704e-015 6.55989e-015
lhumerus -43.3494 -6.56495 93.3634
lradius 36.9419
lwrist -11.2499
lhand 4.73809 -31.2077
lfingers 7.12502
lthumb 30.1201 -3.64226
rfemur -0.789243 20.1427 27.351
rtibia 18.9519
rfoot -14.9907 -28.6957
rtoes -4.9884
lfemur -4.07067 -22.0833 -26.5731
ltibia 22.7891
lfoot -23.553 23.7974
ltoes -19.6775
639
root 9.10828 15.4967 19.0485 359.638 1.13022 -360.582
lowerback 10.0209 0.388638 0.0727991
upperback -2.89139 0.612128 0.981646
thorax -8.72077 0.323447 0.895565
lowerneck -9.54535 -3.51748 -7.24265
upperneck 8.11015 -4.37013 6.26027
head 4.28115 -2.03868 2.81373
rclavicle 2.59041e-015 -2.18663e-015
rhumerus -44.7828 3.31681 -86.8001
rradius 36.8527
rwrist 27.3303
rhand -7.12637 -53.4024
rfingers 7.12502
rthumb 18.7493 637.481
lclavicle 2.59041e-015 -2.18663e-015
lhumerus -43.147 -6.70588 93.1841
lradius 36.8715
lwrist -12.1739
lhand 4.64281 -31.2261
lfingers 7.12502
lthumb 30.0292 -3.64411
rfemur -0.448127 20.1792 27.1486
rtibia 18.881
rfoot -14.8892 -28.6964
rtoes -5.7528
lfemur -3.7383 -22.1559 -27.0298
ltibia 22.8082
lfoot -23.6682 24.0799
ltoes -19.7772
640
root 9.10616 15.4964 19.0531 359.574 1.16778 -360.501
lowerback 10.0155 0.502516 -0.0187184
upperback -2.8685 0.744254 0.888199
thorax -8.69467 0.389489 0.824845
lowerneck -9.1653 -3.64532 -7.47293
upperneck 7.96589 -4.56896 6.62217
head 4.20185 -2.13096 2.95456
rclavicle -1.68346e-015 -3.97569e-016
rhumerus -44.442 3.58445 -86.7515
rradius 36.8468
rwrist 26.3905
rhand -7.02957 -53.9145
rfingers 7.12502
rthumb 18.8424 636.978
lclavicle -1.68346e-015 -3.97569e-016
lhumerus -42.9784 -6.90899 92.9069
lradius 36.8258
lwrist -13.1923
lhand 4.41807 -31.9793
lfingers 7.12502
lthumb 29.8148 -4.35868
rfemur -0.313772 20.2022 27.1037
rtibia 18.8193
rfoot -14.7583 -28.7206
rtoes -5.7796
lfemur -3.63749 -22.1026 -27.1508
ltibia 22.8293
lfoot -23.6969 24.1336
ltoes -20.785
641
root 9.10473 15.4977 19.0505 359.539 1.30561 -360.502
lowerback 10.1185 0.566655 0.0136655
upperback -2.89247 0.828589 0.808953
thorax -8.78024 0.426263 0.706872
lowerneck -8.89854 -3.79258 -7.49975
upperneck 7.94318 -4.79151 6.71978
head 4.16989 -2.24115 2.97719
rclavicle 1.71452e-015 6.75868e-015
rhumerus -44.1337 3.76361 -86.6477
rradius 36.8375
rwrist 25.6571
rhand -6.7869 -54.2565
rfingers 7.12502
rthumb 19.0758 636.659
lclavicle 1.71452e-015 6.75868e-015
lhumerus -42.8286 -7.3158 92.7332
lradius 36.7685
lwrist -13.6934
lhand 4.54066 -32.2954
lfingers 7.12502
lthumb 29.9317 -4.69583
rfemur -0.344331 20.1746 27.1262
rtibia 18.9614
rfoot -14.8143 -28.8503
rtoes -5.29119
lfemur -3.56038 -21.9535 -27.1249
ltibia 22.7025
lfoot -23.5629 23.8838
ltoes -21.832
642
root 9.10399 15.496 19.0454 359.491 1.48512 -360.506
lowerback 10.2774 0.592206 0.00205015
upperback -2.93114 0.860448 0.786535
thorax -8.91515 0.441697 0.682587
lowerneck -8.68087 -3.89822 -7.50365
upperneck 7.99317 -4.94538 6.66804
head 4.15901 -2.32378 2.954
rclavicle -3.68994e-015 1.21259e-014
rhumerus -43.8159 3.89571 -86.4327
rradius 36.7471
rwrist 25.0354
rhand -6.54629 -54.5239
rfingers 7.12502
rthumb 19.3071 636.415
lclavicle -3.68994e-015 1.21259e-014
lhumerus -42.6629 -7.69431 92.6269
lradius 36.6528
lwrist -13.9154
lhand 4.72406 -31.9209
lfingers 7.12502
lthumb 30.1067 -4.35299
rfemur -0.33305 20.0871 27.1535
rtibia 19.0336
rfoot -14.9141 -28.9511
rtoes -5.39211
lfemur -3.52351 -22.0929 -27.0938
ltibia 22.6603
lfoot -23.6351 23.5651
ltoes -20.3028
643
root 9.10667 15.4934 19.0418 359.48 1.63062 -360.506
lowerback 10.3736 0.616614 0.0455614
upperback -3.00139 0.898299 0.763504
thorax -9.04723 0.45699 0.625747
lowerneck -8.34315 -3.97247 -7.8491
upperneck 7.94891 -5.05881 7.00858
head 4.11547 -2.37914 3.11303
rclavicle 2.59041e-015 -1.2921e-014
rhumerus -43.4975 4.15924 -86.2881
rradius 36.5709
rwrist 24.0599
rhand -6.17676 -54.9571
rfingers 7.12502
rthumb 19.6624 636.017
lclavicle 2.59041e-015 -1.2921e-014
lhumerus -42.5784 -7.75185 92.3978
lradius 36.588
lwrist -14.4824
lhand 3.98826 -31.4332
lfingers 7.12502
lthumb 29.4045 -3.73974
rfemur -0.279602 19.8374 27.1157
rtibia 18.9133
rfoot -14.8916 -28.7655
rtoes -5.78
lfemur -3.58656 -22.3379 -27.0947
ltibia 22.7743
lfoot -23.9514 23.3475
ltoes -17.91
644
root 9.1116 15.4968 19.0346 359.59 1.81782 -360.443
lowerback 10.4095 0.615212 0.104597
upperback -3.13025 0.899223 0.685288
thorax -9.20641 0.45168 0.508221
lowerneck -8.03897 -4.04545 -8.106
upperneck 7.99021 -5.17911 7.2934
head 4.10095 -2.43785 3.23949
rclavicle 3.68994e-015 1.33186e-014
rhumerus -43.2554 4.49232 -86.2529
rradius 36.5053
rwrist 22.9045
rhand -5.90154 -55.5441
rfingers 7.12502
rthumb 19.927 635.458
lclavicle 3.68994e-015 1.33186e-014
lhumerus -42.4431 -7.51365 91.9975
lradius 36.3392
lwrist -15.4879
lhand 2.96989 -31.7006
lfingers 7.12502
lthumb 28.4318 -3.8405
rfemur -0.363646 19.4159 26.915
rtibia 18.7481
rfoot -14.6932 -28.4786
rtoes -5.81671
lfemur -3.84097 -22.1386 -27.1252
ltibia 22.9347
lfoot -23.6046 23.3486
ltoes -19.8217
